<svg xmlns="http://www.w3.org/2000/svg" viewBox="0 0 340 340" font-family="-apple-system,Segoe UI,Roboto,Helvetica,Arial,sans-serif" class="hqm-svg-wheel" role="img" aria-label="HQM / ISO 25010 Quality Wheel">
  <style>
    .seg{opacity:.5;stroke:#ffffff;stroke-width:2;transition:opacity .2s;}
    .seg.focus{opacity:1;stroke:#1a1a1a;stroke-width:2.5;}
    .seg.dim{opacity:.12;}
    .wlbl{font-size:9.5px;font-weight:600;fill:#5a5a5a;}
    .wlbl.focus{fill:#1a1a1a;font-weight:700;}
    .wlbl.dim{fill:#b5b5b5;}
  </style>
  <path class="seg s-functional" d="M 170.00 20.00 A 150 150 0 0 1 276.07 63.93 L 229.40 110.60 A 84 84 0 0 0 170.00 86.00 Z" fill="#C7D0EC" />
  <path class="seg s-performance" d="M 276.07 63.93 A 150 150 0 0 1 320.00 170.00 L 254.00 170.00 A 84 84 0 0 0 229.40 110.60 Z" fill="#C2DAEA" />
  <path class="seg s-compatibility" d="M 320.00 170.00 A 150 150 0 0 1 276.07 276.07 L 229.40 229.40 A 84 84 0 0 0 254.00 170.00 Z" fill="#BFE0E2" />
  <path class="seg s-usability" d="M 276.07 276.07 A 150 150 0 0 1 170.00 320.00 L 170.00 254.00 A 84 84 0 0 0 229.40 229.40 Z" fill="#C6E8DA" />
  <path class="seg s-reliability" d="M 170.00 320.00 A 150 150 0 0 1 63.93 276.07 L 110.60 229.40 A 84 84 0 0 0 170.00 254.00 Z" fill="#D4ECCB" />
  <path class="seg s-security" d="M 63.93 276.07 A 150 150 0 0 1 20.00 170.00 L 86.00 170.00 A 84 84 0 0 0 110.60 229.40 Z" fill="#E2EDC2" />
  <path class="seg s-maintainability" d="M 20.00 170.00 A 150 150 0 0 1 63.93 63.93 L 110.60 110.60 A 84 84 0 0 0 86.00 170.00 Z" fill="#ECE6BE" />
  <path class="seg s-portability" d="M 63.93 63.93 A 150 150 0 0 1 170.00 20.00 L 170.00 86.00 A 84 84 0 0 0 110.60 110.60 Z" fill="#DCD9EA" />
  <text class="wlbl l-functional" x="214.8" y="64.9" text-anchor="middle">Functional</text>
  <text class="wlbl l-performance" x="278.1" y="128.2" text-anchor="middle">Performance</text>
  <text class="wlbl l-compatibility" x="278.1" y="217.8" text-anchor="middle">Compatibility</text>
  <text class="wlbl l-usability" x="214.8" y="281.1" text-anchor="middle">Usability</text>
  <text class="wlbl l-reliability" x="125.2" y="281.1" text-anchor="middle">Reliability</text>
  <text class="wlbl l-security" x="61.9" y="217.8" text-anchor="middle">Security</text>
  <text class="wlbl l-maintainability" x="61.9" y="128.2" text-anchor="middle">Maintainab.</text>
  <text class="wlbl l-portability" x="125.2" y="64.9" text-anchor="middle">Portability</text>
  <circle cx="170" cy="170" r="82" fill="#ffffff"/>
  <text x="170" y="166" text-anchor="middle" font-size="13" font-weight="700" fill="#2b6f9f">HQM</text>
  <text x="170" y="182" text-anchor="middle" font-size="9" fill="#777">ISO 25010</text>
</svg>
